<?xml version="1.0" encoding="UTF-8" standalone="no"?>
<svg width="150" height="150" viewBox="0 0 150 150" xmlns="http://www.w3.org/2000/svg">
  <!-- Bee character -->
  <ellipse cx="75" cy="75" rx="50" ry="40" fill="#FCD34D" />
  <ellipse cx="75" cy="75" rx="40" ry="30" fill="#000000" />
  <ellipse cx="75" cy="75" rx="30" ry="20" fill="#FCD34D" />
  <ellipse cx="75" cy="75" rx="20" ry="10" fill="#000000" />
  
  <!-- Wings -->
  <ellipse cx="40" cy="55" rx="20" ry="25" fill="#FFFFFF" opacity="0.7" />
  <ellipse cx="110" cy="55" rx="20" ry="25" fill="#FFFFFF" opacity="0.7" />
  
  <!-- Eyes -->
  <circle cx="60" cy="65" r="8" fill="#FFFFFF" />
  <circle cx="90" cy="65" r="8" fill="#FFFFFF" />
  <circle cx="60" cy="65" r="4" fill="#000000" />
  <circle cx="90" cy="65" r="4" fill="#000000" />
  
  <!-- Smile -->
  <path d="M65,85 Q75,95 85,85" stroke="#FFFFFF" stroke-width="3" fill="none" />
  
  <!-- Antenna -->
  <path d="M65,50 Q60,35 55,30" stroke="#000000" stroke-width="3" fill="none" />
  <path d="M85,50 Q90,35 95,30" stroke="#000000" stroke-width="3" fill="none" />
  <circle cx="55" cy="30" r="4" fill="#000000" />
  <circle cx="95" cy="30" r="4" fill="#000000" />
</svg>